<?xml version="1.0" encoding="utf-8"?>
<!-- Generated by Mocodo 4.3.2 -->
<svg width="544" height="347" viewBox="0 0 544 347" xmlns="http://www.w3.org/2000/svg">
<rect x="0" y="0" width="544" height="347" fill="#f7f7f7" stroke="none" stroke-width="0"/>

<!-- Association ABONNEMENT -->
<g class="page_0_450cbbcc diagram_page" visibility="visible">
	<path d="M210 119 C149.33 152.33 99.33 152.33 60 119" fill="none" stroke="#7fbc41" stroke-width="2"/>
	<path d="M210 119 C149.33 85.67 99.33 85.67 60 119" fill="none" stroke="#7fbc41" stroke-width="2"/>
	<g>
		<path d="M97 94 a14 14 90 0 1 14 14 V119 h-102 V108 a14 14 90 0 1 14 -14" fill="#b8e186" stroke="#b8e186" stroke-width="0"/>
		<path d="M111 119 v11 a14 14 90 0 1 -14 14 H23 a14 14 90 0 1 -14 -14 V119 H102" fill="#e6f5d0" stroke="#e6f5d0" stroke-width="0"/>
		<rect x="9" y="94" width="102" height="50" fill="none" rx="14" stroke="#7fbc41" stroke-width="2"/>
		<line x1="9" y1="119" x2="111" y2="119" stroke="#7fbc41" stroke-width="1"/>
		<text x="17" y="111.75" fill="#000000" font-family="Verdana" font-size="12">ABONNEMENT</text>
	</g>
	<text x="116" y="135" fill="#c51b7d" font-family="Verdana" font-size="12" onmouseover="show_450cbbcc(evt,'suit')" onmouseout="hide_450cbbcc(evt)" style="cursor: pointer;">0,N</text>
	<text x="116" y="112" fill="#c51b7d" font-family="Verdana" font-size="12" onmouseover="show_450cbbcc(evt,'est suivi')" onmouseout="hide_450cbbcc(evt)" style="cursor: pointer;">0,N</text>
</g>

<!-- Association PUBLIE -->
<g class="page_0_450cbbcc diagram_page" visibility="visible">
	<line x1="210" y1="119" x2="339" y2="119" stroke="#7fbc41" stroke-width="2"/>
	<line x1="468" y1="119" x2="339" y2="119" stroke="#7fbc41" stroke-width="2"/>
	<g>
		<path d="M355 94 a14 14 90 0 1 14 14 V119 h-60 V108 a14 14 90 0 1 14 -14" fill="#b8e186" stroke="#b8e186" stroke-width="0"/>
		<path d="M369 119 v11 a14 14 90 0 1 -14 14 H323 a14 14 90 0 1 -14 -14 V119 H60" fill="#e6f5d0" stroke="#e6f5d0" stroke-width="0"/>
		<rect x="309" y="94" width="60" height="50" fill="none" rx="14" stroke="#7fbc41" stroke-width="2"/>
		<line x1="309" y1="119" x2="369" y2="119" stroke="#7fbc41" stroke-width="1"/>
		<text x="317" y="111.75" fill="#000000" font-family="Verdana" font-size="12">PUBLIE</text>
	</g>
	<text x="282" y="136" fill="#c51b7d" font-family="Verdana" font-size="12">0,N</text>
	<text x="375" y="136" fill="#c51b7d" font-family="Verdana" font-size="12">0,1</text>
</g>

<!-- Entity UTILISATEUR -->
<g class="page_0_450cbbcc diagram_page" visibility="visible">
	<g>
		<rect x="143" y="9" width="134" height="25" fill="#f1b6da" stroke="none" stroke-width="0" opacity="1"/>
		<rect x="143" y="34" width="134" height="195" fill="#fde0ef" stroke="none" stroke-width="0" opacity="1"/>
		<rect x="143" y="9" width="134" height="220" fill="none" stroke="#de77ae" stroke-width="2" opacity="1"/>
		<line x1="143" y1="34" x2="277" y2="34" stroke="#de77ae" stroke-width="1"/>
	</g>
	<text x="169" y="26.75" fill="#000000" font-family="Verdana" font-size="12">UTILISATEUR</text>
	<text x="148" y="51.8" fill="#000000" font-family="Verdana" font-size="12">réf. utilisateur</text>
	<line x1="148" y1="54" x2="234" y2="54" stroke="#000000" stroke-width="1"/>
	<text x="148" y="68.8" fill="#000000" font-family="Verdana" font-size="12">nom</text>
	<text x="148" y="85.8" fill="#000000" font-family="Verdana" font-size="12">prénom</text>
	<text x="148" y="102.8" fill="#000000" font-family="Verdana" font-size="12">email</text>
	<text x="148" y="119.8" fill="#000000" font-family="Verdana" font-size="12">mot de passe</text>
	<text x="148" y="136.8" fill="#000000" font-family="Verdana" font-size="12">dernière connexion</text>
	<text x="148" y="153.8" fill="#000000" font-family="Verdana" font-size="12">date de naissance</text>
	<text x="148" y="170.8" fill="#000000" font-family="Verdana" font-size="12">ville de naissance</text>
	<text x="148" y="187.8" fill="#000000" font-family="Verdana" font-size="12">ville</text>
	<text x="148" y="204.8" fill="#000000" font-family="Verdana" font-size="12">date de création</text>
	<text x="148" y="221.8" fill="#000000" font-family="Verdana" font-size="12">date de modification</text>
</g>

<!-- Entity PUBLICATION -->
<g class="page_0_450cbbcc diagram_page" visibility="visible">
	<g>
		<rect x="401" y="68" width="134" height="25" fill="#f1b6da" stroke="none" stroke-width="0" opacity="1"/>
		<rect x="401" y="93" width="134" height="77" fill="#fde0ef" stroke="none" stroke-width="0" opacity="1"/>
		<rect x="401" y="68" width="134" height="102" fill="none" stroke="#de77ae" stroke-width="2" opacity="1"/>
		<line x1="401" y1="93" x2="535" y2="93" stroke="#de77ae" stroke-width="1"/>
	</g>
	<text x="426" y="85.75" fill="#000000" font-family="Verdana" font-size="12">PUBLICATION</text>
	<text x="406" y="110.8" fill="#000000" font-family="Verdana" font-size="12">réf. publication</text>
	<line x1="406" y1="113" x2="498" y2="113" stroke="#000000" stroke-width="1"/>
	<text x="406" y="127.8" fill="#000000" font-family="Verdana" font-size="12">contenu</text>
	<text x="406" y="144.8" fill="#000000" font-family="Verdana" font-size="12">date de création</text>
	<text x="406" y="161.8" fill="#000000" font-family="Verdana" font-size="12">date de modification</text>
</g>

<!-- Entity ADMIN -->
<g class="page_0_450cbbcc diagram_page" visibility="visible">
	<g>
		<rect x="164" y="254" width="92" height="25" fill="#f1b6da" stroke="none" stroke-width="0" opacity="1"/>
		<rect x="164" y="279" width="92" height="59" fill="#fde0ef" stroke="none" stroke-width="0" opacity="1"/>
		<rect x="164" y="254" width="92" height="84" fill="none" stroke="#de77ae" stroke-width="2" opacity="1"/>
		<line x1="164" y1="279" x2="256" y2="279" stroke="#de77ae" stroke-width="1"/>
	</g>
	<text x="189" y="271.75" fill="#000000" font-family="Verdana" font-size="12">ADMIN</text>
	<text x="169" y="296.8" fill="#000000" font-family="Verdana" font-size="12">réf. admin</text>
	<line x1="169" y1="299" x2="232" y2="299" stroke="#000000" stroke-width="1"/>
	<text x="169" y="313.8" fill="#000000" font-family="Verdana" font-size="12">email</text>
	<text x="169" y="330.8" fill="#000000" font-family="Verdana" font-size="12">mot de passe</text>
</g>

<!-- Notes -->
<script type="text/ecmascript">
<![CDATA[
	function show_450cbbcc(evt, text) {
		var pos = (evt.target.getAttribute("y") < 302) ? "bottom" : "top";
		var note = document.getElementById(pos + "_note_450cbbcc");
		note.textContent = text;
		note.setAttributeNS(null, "visibility", "visible");
		document.getElementById(pos + "_overlay_450cbbcc").setAttributeNS(null, "visibility", "visible");
	}
	function hide_450cbbcc(evt) {
		document.getElementById("top_note_450cbbcc").setAttributeNS(null, "visibility", "hidden");
		document.getElementById("top_overlay_450cbbcc").setAttributeNS(null, "visibility", "hidden");
		document.getElementById("bottom_note_450cbbcc").setAttributeNS(null, "visibility", "hidden");
		document.getElementById("bottom_overlay_450cbbcc").setAttributeNS(null, "visibility", "hidden");
	}
]]>
</script>
<rect id="top_overlay_450cbbcc" x="0" y="0" width="100%" height="40" fill="#4d9221" stroke-width="0" opacity="0.9" visibility="hidden"/>
<text id="top_note_450cbbcc" text-anchor="middle" x="272" y="24" fill="#f7f7f7" font-family="Verdana" font-size="14" visibility="hidden"></text>
<rect id="bottom_overlay_450cbbcc" x="0" y="307" width="100%" height="40" fill="#4d9221" stroke-width="0" opacity="0.9" visibility="hidden"/>
<text id="bottom_note_450cbbcc" text-anchor="middle" x="272" y="331" fill="#f7f7f7" font-family="Verdana" font-size="14" visibility="hidden"></text>
</svg>